<svg width="1093" height="216" viewBox="0 0 1093 216" fill="none" xmlns="http://www.w3.org/2000/svg">
<path d="M287.096 156.207C280.499 156.207 274.793 154.673 269.975 151.605C265.159 148.506 261.431 144.226 258.792 138.765C256.184 133.273 254.88 126.952 254.88 119.804C254.88 112.685 256.184 106.365 258.792 100.842C261.431 95.2884 265.067 90.9472 269.699 87.8174C274.363 84.6573 279.748 83.0771 285.854 83.0771C289.689 83.0771 293.386 83.7829 296.945 85.1943C300.504 86.575 303.695 88.7073 306.518 91.5913C309.371 94.4447 311.626 98.0502 313.283 102.407C314.94 106.733 315.768 111.857 315.768 117.778V121.828H260.541V114.603H307.392C307.392 110.062 306.472 105.981 304.631 102.361C302.82 98.7094 300.289 95.8254 297.037 93.7086C293.815 91.5913 290.088 90.5329 285.854 90.5329C281.374 90.5329 277.431 91.7296 274.026 94.1229C270.62 96.5157 267.951 99.6762 266.018 103.604C264.115 107.531 263.149 111.826 263.118 116.49V120.816C263.118 126.431 264.085 131.34 266.018 135.543C267.981 139.716 270.758 142.953 274.348 145.254C277.938 147.555 282.187 148.706 287.096 148.706C290.441 148.706 293.37 148.184 295.886 147.141C298.433 146.098 300.565 144.702 302.283 142.953C304.033 141.173 305.352 139.225 306.241 137.108L314.02 139.639C312.946 142.615 311.181 145.362 308.727 147.877C306.303 150.393 303.265 152.418 299.614 153.952C295.994 155.456 291.821 156.207 287.096 156.207ZM359.271 156.207C353.472 156.207 348.395 154.673 344.037 151.605C339.681 148.537 336.275 144.257 333.821 138.765C331.397 133.273 330.185 126.875 330.185 119.573C330.185 112.302 331.397 105.935 333.821 100.474C336.275 94.9817 339.696 90.717 344.084 87.6796C348.471 84.6115 353.58 83.0771 359.409 83.0771C363.705 83.0771 367.279 83.8443 370.132 85.3783C372.986 86.8817 375.272 88.7535 376.99 90.993C378.708 93.2329 380.043 95.4115 380.994 97.5283H381.73V60.48H389.969V154.735H381.961V141.618H380.994C380.043 143.766 378.693 145.975 376.944 148.246C375.195 150.485 372.879 152.372 369.995 153.906C367.141 155.441 363.566 156.207 359.271 156.207ZM360.237 148.706C364.809 148.706 368.706 147.463 371.927 144.978C375.149 142.462 377.603 139.01 379.291 134.623C381.009 130.204 381.869 125.142 381.869 119.435C381.869 113.79 381.024 108.804 379.337 104.478C377.65 100.121 375.195 96.7153 371.974 94.2607C368.752 91.7754 364.84 90.5329 360.237 90.5329C355.513 90.5329 351.524 91.8216 348.272 94.3989C345.05 96.9456 342.595 100.397 340.908 104.754C339.251 109.111 338.423 114.004 338.423 119.435C338.423 124.927 339.266 129.883 340.954 134.301C342.642 138.719 345.096 142.232 348.318 144.84C351.57 147.417 355.543 148.706 360.237 148.706ZM458.218 127.719V84.0439H466.413V154.735H458.218V142.999H457.574C455.92 146.619 453.293 149.641 449.703 152.065C446.118 154.459 441.729 155.655 436.545 155.655C432.035 155.655 428.029 154.673 424.532 152.709C421.034 150.715 418.287 147.801 416.293 143.965C414.299 140.13 413.302 135.42 413.302 129.836V84.0439H421.494V129.33C421.494 134.853 423.12 139.302 426.372 142.677C429.624 146.021 433.797 147.693 438.89 147.693C442.083 147.693 445.15 146.926 448.096 145.392C451.038 143.858 453.466 141.618 455.367 138.673C457.268 135.696 458.218 132.046 458.218 127.719ZM507.198 60.48V154.735H484.419V60.48H507.198ZM556.338 154.735H521.502V60.48H556.295C565.898 60.48 574.167 62.367 581.101 66.1409C588.064 69.8842 593.434 75.2842 597.21 82.3409C600.981 89.367 602.869 97.7737 602.869 107.562C602.869 117.38 600.981 125.817 597.21 132.874C593.464 139.931 588.112 145.346 581.148 149.12C574.18 152.863 565.911 154.735 556.338 154.735ZM544.281 135.313H555.466C560.745 135.313 565.207 134.423 568.858 132.644C572.538 130.833 575.316 127.904 577.187 123.854C579.092 119.773 580.042 114.342 580.042 107.562C580.042 100.781 579.092 95.3809 577.187 91.3615C575.286 87.3115 572.478 84.3964 568.767 82.617C565.086 80.8069 560.542 79.9019 555.142 79.9019H544.281V135.313Z" fill="black"/>
<path d="M107.999 0C48.3533 0 0 48.3538 0 108C0 167.646 48.3533 216 107.999 216C167.646 216 215.999 167.646 215.999 108C215.999 48.3538 167.646 0 107.999 0Z" fill="#171717"/>
<path d="M147.661 146.479C147.661 150.663 144.268 154.057 140.083 154.057H75.7293C71.5432 154.057 68.1507 150.663 68.1507 146.479V124.974H147.661V146.479Z" fill="white"/>
<path d="M147.661 115.661H68.1507V98.81H130.976V86.3822C130.976 73.4689 120.471 62.9644 107.559 62.9644C94.6453 62.9644 84.1399 73.4689 84.1399 86.3822H72.107C72.107 66.8338 88.0102 50.9306 107.559 50.9306C127.107 50.9306 143.009 66.8338 143.009 86.3822V98.81H143.517H147.661V115.661Z" fill="white"/>
<path fill-rule="evenodd" clip-rule="evenodd" d="M684.916 90.7935H696.169C695.322 86.0135 693.779 81.763 691.541 78.0419C689.302 74.2905 686.519 71.1139 683.191 68.5122C679.864 65.8802 676.128 63.8835 671.984 62.5221C667.87 61.1607 663.468 60.48 658.779 60.48C650.854 60.48 643.806 62.4162 637.634 66.2886C631.463 70.161 626.608 75.667 623.069 82.8067C619.53 89.9464 617.76 98.4173 617.76 108.219C617.76 118.021 619.53 126.492 623.069 133.632C626.608 140.771 631.463 146.278 637.634 150.15C643.806 154.022 650.854 155.958 658.779 155.958C663.468 155.958 667.87 155.278 671.984 153.916C673.123 153.542 674.19 153.116 675.218 152.643C683.462 149.377 696.225 141.407 705.103 128.874L705 128.649C706.595 126.735 709.671 122.191 712.634 117.496C715.188 113.449 717.569 109.431 718.787 107.03C720.27 103.073 722.536 99.8696 725.584 97.4189C728.67 94.9382 732.602 93.6978 737.382 93.6978C742.162 93.6978 746.094 94.9382 749.18 97.4189C752.265 99.8997 754.549 103.152 756.031 107.176C757.514 111.199 758.255 115.54 758.255 120.199C758.255 124.858 757.514 129.185 756.031 133.178C754.549 137.171 752.265 140.393 749.18 142.844C746.094 145.294 742.162 146.52 737.382 146.52C732.602 146.52 728.67 145.294 725.584 142.844C722.499 140.393 720.215 137.171 718.733 133.178C717.25 129.185 716.509 124.858 716.509 120.199C716.509 119.957 716.511 119.716 716.515 119.476C716.51 119.484 716.505 119.492 716.5 119.5C713.717 123.91 709.288 130.143 707.331 132.593C707.949 134.884 708.755 137.045 709.748 139.077C712.41 144.462 716.101 148.652 720.82 151.647C725.569 154.642 731.09 156.14 737.382 156.14C743.674 156.14 749.18 154.642 753.899 151.647C758.648 148.652 762.339 144.462 764.97 139.077C767.632 133.692 768.963 127.4 768.963 120.199C768.963 112.939 767.632 106.601 764.97 101.185C762.339 95.7701 758.648 91.565 753.899 88.5699C749.18 85.5749 743.674 84.0774 737.382 84.0774C731.09 84.0774 725.569 85.5749 720.82 88.5699C716.101 91.565 712.41 95.7701 709.748 101.185C709.179 102.357 708.671 103.573 708.225 104.831C702.745 114.956 689.269 136.562 669.081 143.89C668.582 143.945 668.11 144.03 667.673 144.16C664.829 145.007 661.865 145.43 658.779 145.43C653.153 145.43 648.056 144.009 643.488 141.165C638.95 138.321 635.335 134.131 632.643 128.595C629.981 123.058 628.65 116.267 628.65 108.219C628.65 100.172 629.981 93.3801 632.643 87.8438C635.335 82.3075 638.95 78.1175 643.488 75.2737C648.056 72.4299 653.153 71.008 658.779 71.008C661.865 71.008 664.829 71.4316 667.673 72.2787C670.517 73.1258 673.103 74.3964 675.432 76.0906C677.792 77.7545 679.788 79.8117 681.422 82.2622C683.086 84.7127 684.25 87.5564 684.916 90.7935ZM792.185 112.757V154.688H781.477V84.9849H791.822V95.876H792.73C794.363 92.3364 796.844 89.4926 800.171 87.3447C803.499 85.1665 807.794 84.0774 813.058 84.0774C817.777 84.0774 821.906 85.0454 825.445 86.9816C828.985 88.8876 831.737 91.7919 833.704 95.6945C835.67 99.5669 836.653 104.468 836.653 110.397V154.688H825.944V111.124C825.944 105.648 824.523 101.382 821.679 98.3265C818.836 95.2407 814.933 93.6978 809.972 93.6978C806.554 93.6978 803.499 94.439 800.806 95.9214C798.144 97.4038 796.042 99.5669 794.499 102.411C792.956 105.254 792.185 108.703 792.185 112.757ZM863.097 154.688V112.757C863.097 108.703 863.868 105.254 865.411 102.411C866.953 99.5669 869.056 97.4038 871.718 95.9214C874.41 94.439 877.465 93.6978 880.884 93.6978C885.845 93.6978 889.747 95.2407 892.591 98.3265C895.434 101.382 896.856 105.648 896.856 111.124V154.688H907.564V110.397C907.564 104.468 906.581 99.5669 904.615 95.6945C902.649 91.7919 899.896 88.8876 896.357 86.9816C892.817 85.0454 888.688 84.0774 883.969 84.0774C878.706 84.0774 874.41 85.1665 871.083 87.3447C867.755 89.4926 865.275 92.3364 863.641 95.876H862.734V84.9849H852.388V154.688H863.097ZM952.521 156.14C945.806 156.14 940.013 154.658 935.142 151.693C930.302 148.698 926.566 144.523 923.935 139.168C921.333 133.783 920.032 127.521 920.032 120.381C920.032 113.241 921.333 106.949 923.935 101.503C926.566 96.0273 930.227 91.7616 934.915 88.7061C939.635 85.6203 945.14 84.0774 951.432 84.0774C955.062 84.0774 958.647 84.6824 962.186 85.8925C965.725 87.1026 968.947 89.0691 971.851 91.7919C974.755 94.4844 977.069 98.0542 978.794 102.501C980.518 106.949 981.38 112.424 981.38 118.929V123.467H930.765C930.918 128.104 931.818 132.082 933.463 135.402C935.309 139.032 937.865 141.8 941.132 143.706C944.399 145.582 948.195 146.52 952.521 146.52C955.334 146.52 957.875 146.126 960.144 145.34C962.443 144.523 964.425 143.313 966.088 141.709C967.752 140.076 969.038 138.049 969.945 135.628L980.291 138.533C979.202 142.042 977.372 145.128 974.8 147.79C972.229 150.422 969.053 152.479 965.272 153.962C961.49 155.414 957.24 156.14 952.521 156.14ZM933.237 105.043C931.811 107.92 930.996 110.976 930.792 114.209H970.49C970.49 110.276 969.703 106.767 968.13 103.681C966.588 100.595 964.379 98.1601 961.505 96.3752C958.662 94.5903 955.304 93.6978 951.432 93.6978C947.167 93.6978 943.476 94.7567 940.361 96.8744C937.275 98.9618 934.9 101.685 933.237 105.043ZM1005.27 151.511C1009.99 154.597 1015.62 156.14 1022.15 156.14C1027.29 156.14 1031.8 155.187 1035.67 153.281C1039.57 151.345 1042.71 148.743 1045.07 145.476C1047.46 142.178 1048.95 138.472 1049.56 134.358H1038.85C1038.18 136.899 1037.06 139.077 1035.49 140.892C1033.92 142.708 1032 144.099 1029.73 145.067C1027.46 146.036 1024.93 146.52 1022.15 146.52C1017.92 146.52 1014.23 145.415 1011.08 143.207C1007.96 140.998 1005.54 137.897 1003.82 133.904C1002.12 129.911 1001.28 125.221 1001.28 119.836C1001.28 114.572 1002.14 109.989 1003.86 106.086C1005.62 102.154 1008.05 99.1131 1011.17 96.9651C1014.32 94.7869 1017.98 93.6978 1022.15 93.6978C1026.87 93.6978 1030.62 94.9382 1033.4 97.4189C1036.22 99.8694 1038.03 102.683 1038.85 105.86H1049.56C1048.95 101.503 1047.39 97.6912 1044.88 94.4239C1042.37 91.1566 1039.15 88.6153 1035.22 86.8001C1031.29 84.9849 1026.87 84.0774 1021.97 84.0774C1015.68 84.0774 1010.17 85.6203 1005.45 88.7061C1000.76 91.7616 997.103 96.0122 994.472 101.458C991.87 106.873 990.569 113.12 990.569 120.199C990.569 127.158 991.84 133.344 994.381 138.76C996.922 144.175 1000.55 148.425 1005.27 151.511ZM1091.69 84.9849V94.0608H1076.81V134.721C1076.81 137.746 1077.24 140.015 1078.12 141.528C1079.03 143.01 1080.18 144.009 1081.57 144.523C1082.99 145.007 1084.49 145.249 1086.06 145.249C1087.24 145.249 1088.21 145.188 1088.97 145.067L1090.78 144.704L1092.96 154.325C1092.23 154.597 1091.22 154.869 1089.92 155.142C1088.62 155.444 1086.97 155.595 1084.97 155.595C1081.95 155.595 1078.98 154.945 1076.08 153.644C1073.21 152.343 1070.82 150.362 1068.91 147.699C1067.04 145.037 1066.1 141.679 1066.1 137.625V94.0608H1055.57V84.9849H1066.1V68.2853H1076.81V84.9849H1091.69Z" fill="#CA402B"/>
</svg>
